<svg height="512pt" viewBox="0 -26 512 512" width="512pt" xmlns="http://www.w3.org/2000/svg"><path d="m92.617188 271.089844c-4.308594 0-7.804688-3.492188-7.804688-7.804688v-108.226562c0-38.734375 31.511719-70.246094 70.246094-70.246094h42.664062c4.3125 0 7.804688 3.496094 7.804688 7.804688 0 4.3125-3.492188 7.804687-7.804688 7.804687h-42.664062c-30.125 0-54.636719 24.511719-54.636719 54.636719v108.226562c0 4.308594-3.492187 7.804688-7.804687 7.804688zm0 0" fill="#8db0ff"/><path d="m419.382812 271.089844c-4.3125 0-7.804687-3.492188-7.804687-7.804688v-108.226562c0-30.128906-24.511719-54.636719-54.636719-54.636719h-44.746094c-4.3125 0-7.804687-3.492187-7.804687-7.804687 0-4.308594 3.492187-7.804688 7.804687-7.804688h44.746094c38.734375 0 70.246094 31.511719 70.246094 70.246094v108.226562c0 4.308594-3.496094 7.804688-7.804688 7.804688zm0 0" fill="#669af7"/><path d="m256 271.089844c-4.3125 0-7.804688-3.492188-7.804688-7.804688v-78.050781c0-4.308594 3.492188-7.804687 7.804688-7.804687s7.804688 3.496093 7.804688 7.804687v78.050781c0 4.308594-3.492188 7.804688-7.804688 7.804688zm0 0" fill="#8db0ff"/><path d="m143.277344 370.472656-15.277344-5.304687v.101562l-26.367188 45.75c-4.003906 6.949219-14.027343 6.949219-18.03125 0l-26.367187-45.75-.011719-.097656-15.265625 5.300781c-25.117187 8.722656-41.957031 32.394532-41.957031 58.984375v20.105469c0 5.746094 4.660156 10.40625 10.40625 10.40625h174.828125v-30.511719c0-26.589843-16.839844-50.261719-41.957031-58.984375zm0 0" fill="#636363"/><path d="m143.277344 370.472656-3.878906-1.347656c14.878906 11.609375 24.050781 29.609375 24.050781 49.214844v41.628906h21.789062v-30.511719c-.003906-26.589843-16.84375-50.261719-41.960937-58.984375zm0 0" fill="#494949"/><path d="m57.234375 365.269531 26.367187 45.75c4.003907 6.949219 14.03125 6.949219 18.035157 0l26.363281-45.75v-.101562l-17.691406-6.144531h-35.382813l-17.703125 6.148437zm0 0" fill="#ddf5ff"/><path d="m136.324219 304.910156c0-24.136718-19.566407-43.707031-43.707031-43.707031-24.136719 0-43.707032 19.570313-43.707032 43.707031v20.8125c0 24.140625 19.570313 43.707032 43.707032 43.707032 24.140624 0 43.707031-19.566407 43.707031-43.707032zm0 0" fill="#feccc1"/><path d="m92.617188 261.203125c-3.027344 0-5.988282.308594-8.84375.898437 19.898437 4.089844 34.859374 21.703126 34.859374 42.808594v20.8125c0 21.109375-14.960937 38.722656-34.859374 42.8125 2.855468.585938 5.8125.894532 8.84375.894532 24.140624 0 43.707031-19.566407 43.707031-43.707032v-20.8125c0-24.136718-19.566407-43.707031-43.707031-43.707031zm0 0" fill="#f9b3a7"/><path d="m470.042969 370.472656-15.277344-5.304687v.101562l-26.367187 45.75c-4.003907 6.949219-14.03125 6.949219-18.035157 0l-26.363281-45.75-.015625-.097656-15.261719 5.300781c-25.117187 8.722656-41.957031 32.394532-41.957031 58.984375v30.511719h174.828125c5.746094 0 10.40625-4.660156 10.40625-10.40625v-20.105469c0-26.589843-16.839844-50.261719-41.957031-58.984375zm0 0" fill="#636363"/><path d="m470.042969 370.472656-5.835938-2.027344c15.386719 11.582032 24.898438 29.914063 24.898438 49.898438v41.625h12.488281c5.746094 0 10.40625-4.660156 10.40625-10.40625v-20.105469c0-26.589843-16.839844-50.261719-41.957031-58.984375zm0 0" fill="#494949"/><path d="m384 365.269531 26.367188 45.75c4.003906 6.949219 14.027343 6.949219 18.03125 0l26.367187-45.75v-.101562l-17.691406-6.144531h-35.382813l-17.703125 6.148437zm0 0" fill="#ddf5ff"/><path d="m463.089844 304.910156c0-24.136718-19.570313-43.707031-43.707032-43.707031-24.140624 0-43.707031 19.570313-43.707031 43.707031v20.8125c0 24.140625 19.566407 43.707032 43.707031 43.707032 24.136719 0 43.707032-19.566407 43.707032-43.707032zm0 0" fill="#feccc1"/><path d="m419.382812 261.203125c-3.03125 0-5.988281.308594-8.847656.898437 19.898438 4.089844 34.863282 21.703126 34.863282 42.808594v20.8125c0 21.109375-14.964844 38.722656-34.863282 42.8125 2.859375.585938 5.816406.894532 8.847656.894532 24.136719 0 43.707032-19.566407 43.707032-43.707032v-20.8125c0-24.136718-19.570313-43.707031-43.707032-43.707031zm0 0" fill="#f9b3a7"/><path d="m306.660156 370.472656-15.277344-5.304687v.101562l-26.367187 45.75c-4.003906 6.949219-14.027344 6.949219-18.03125 0l-26.367187-45.75-.011719-.097656-15.265625 5.300781c-25.117188 8.722656-41.957032 32.394532-41.957032 58.984375v30.511719h185.234376v-30.511719c0-26.589843-16.839844-50.261719-41.957032-58.984375zm0 0" fill="#636363"/><path d="m306.660156 370.472656-5.835937-2.027344c15.386719 11.582032 24.898437 29.914063 24.898437 49.898438v41.625h22.894532v-30.511719c0-26.589843-16.839844-50.261719-41.957032-58.984375zm0 0" fill="#494949"/><path d="m220.617188 365.269531 26.367187 45.75c4.003906 6.949219 14.027344 6.949219 18.03125 0l26.367187-45.75v-.101562l-17.691406-6.144531h-35.382812l-17.703125 6.148437zm0 0" fill="#ddf5ff"/><path d="m299.707031 304.910156c0-24.136718-19.566406-43.707031-43.707031-43.707031s-43.707031 19.570313-43.707031 43.707031v20.8125c0 24.140625 19.566406 43.707032 43.707031 43.707032s43.707031-19.566407 43.707031-43.707032zm0 0" fill="#feccc1"/><path d="m256 261.203125c-3.03125 0-5.988281.308594-8.847656.898437 19.898437 4.089844 34.863281 21.703126 34.863281 42.808594v20.8125c0 21.109375-14.964844 38.722656-34.863281 42.8125 2.859375.585938 5.816406.894532 8.847656.894532 24.140625 0 43.707031-19.566407 43.707031-43.707032v-20.8125c0-24.136718-19.566406-43.707031-43.707031-43.707031zm0 0" fill="#f9b3a7"/><path d="m318.4375 92.617188c0-3.898438-.375-7.707032-1.054688-11.402344l20.222657-11.679688c4.976562-2.871094 6.679687-9.234375 3.808593-14.214844l-10.40625-18.023437c-2.875-4.976563-9.238281-6.683594-14.21875-3.808594l-20.226562 11.679688c-5.769531-4.9375-12.445312-8.839844-19.75-11.421875v-23.339844c0-5.746094-4.65625-10.40625-10.40625-10.40625h-20.8125c-5.746094 0-10.40625 4.660156-10.40625 10.40625v23.339844c-7.304688 2.582031-13.976562 6.484375-19.746094 11.421875l-20.230468-11.679688c-4.976563-2.875-11.34375-1.167969-14.214844 3.808594l-10.40625 18.023437c-2.875 4.980469-1.167969 11.34375 3.808594 14.21875l20.222656 11.675782c-.683594 3.699218-1.058594 7.507812-1.058594 11.402344 0 3.898437.375 7.707031 1.058594 11.40625l-20.222656 11.675781c-4.976563 2.875-6.683594 9.238281-3.808594 14.214843l10.40625 18.027344c2.871094 4.976563 9.238281 6.683594 14.214844 3.808594l20.230468-11.679688c5.769532 4.9375 12.445313 8.839844 19.746094 11.421876v23.339843c0 5.746094 4.660156 10.40625 10.40625 10.40625h20.8125c5.746094 0 10.40625-4.660156 10.40625-10.40625v-23.339843c7.304688-2.582032 13.980469-6.484376 19.75-11.421876l20.226562 11.679688c4.980469 2.875 11.34375 1.167969 14.21875-3.808594l10.40625-18.027344c2.871094-4.976562 1.167969-11.339843-3.808593-14.214843l-20.222657-11.675781c.679688-3.699219 1.054688-7.507813 1.054688-11.40625zm-62.4375 20.8125c-11.496094 0-20.8125-9.316407-20.8125-20.8125 0-11.496094 9.316406-20.8125 20.8125-20.8125s20.8125 9.316406 20.8125 20.8125c0 11.496093-9.316406 20.8125-20.8125 20.8125zm0 0" fill="#8db0ff"/><path d="m318.4375 92.617188c0-3.898438-.375-7.707032-1.054688-11.402344l20.222657-11.679688c4.976562-2.871094 6.679687-9.234375 3.808593-14.214844l-10.40625-18.023437c-2.875-4.976563-9.238281-6.683594-14.21875-3.808594l-7.675781 4.433594c1 5.59375 1.523438 11.351563 1.523438 17.230469 0 47.121094-33.496094 86.414062-77.972657 95.378906.832032.335938 1.675782.65625 2.523438.957031v23.339844c0 5.746094 4.660156 10.40625 10.40625 10.40625h20.8125c5.746094 0 10.40625-4.660156 10.40625-10.40625v-23.339844c7.304688-2.582031 13.976562-6.484375 19.746094-11.421875l20.230468 11.679688c4.976563 2.875 11.34375 1.167968 14.21875-3.808594l10.402344-18.023438c2.875-4.976562 1.167969-11.34375-3.808594-14.21875l-20.222656-11.675781c.683594-3.695312 1.058594-7.503906 1.058594-11.402343zm0 0" fill="#669af7"/></svg>